<svg width="5486" height="3561" xmlns="http://www.w3.org/2000/svg" xmlns:xlink="http://www.w3.org/1999/xlink" xml:space="preserve" overflow="hidden"><g transform="translate(354 70)"><rect x="2613.5" y="187.5" width="537" height="231" stroke="#000000" stroke-width="6.875" stroke-miterlimit="8" stroke-dasharray="27.5 20.625" fill="none"/><path d="M2767.48 237.5 3083.68 237.5C3125.1 237.5 3130.5 242.936 3130.5 250.945 3130.5 258.953 3125.1 266.5 3083.68 266.5L2767.48 266.5C2726.06 266.5 2722.5 261.064 2722.5 253.055 2722.5 245.047 2726.06 237.5 2767.48 237.5Z" stroke="#FFFFFF" stroke-width="6.875" stroke-miterlimit="8" fill-rule="evenodd"/><text font-family="Aptos,Aptos_MSFontService,sans-serif" font-weight="700" font-size="73" transform="matrix(1 0 0 1 2586.82 167)">Substation 20</text><text font-family="Aptos,Aptos_MSFontService,sans-serif" font-weight="400" font-size="83" transform="matrix(1 0 0 1 2636.34 277)">28</text><rect x="1200.5" y="1984.5" width="820" height="720" stroke="#000000" stroke-width="6.875" stroke-miterlimit="8" stroke-dasharray="27.5 20.625" fill="none"/><rect x="-316.5" y="1523.5" width="597" height="524" stroke="#000000" stroke-width="6.875" stroke-miterlimit="8" stroke-dasharray="27.5 20.625" fill="none"/><path d="M-111.188 1875.5 207.34 1875.5C249.064 1875.5 254.5 1880.19 254.5 1887.09 254.5 1893.99 249.064 1900.5 207.34 1900.5L-111.188 1900.5C-152.912 1900.5-156.5 1895.81-156.5 1888.91-156.5 1882.01-152.912 1875.5-111.188 1875.5Z" stroke="#FFFFFF" stroke-width="6.875" stroke-miterlimit="8" fill-rule="evenodd"/><path d="M-156.5 1695.5C-156.5 1656.84-127.846 1625.5-92.5 1625.5-57.1538 1625.5-28.5 1656.84-28.5 1695.5-28.5 1734.16-57.1538 1765.5-92.5 1765.5-127.846 1765.5-156.5 1734.16-156.5 1695.5Z" stroke="#000000" stroke-width="3.4375" stroke-miterlimit="8" fill="#FFFFFF" fill-rule="evenodd"/><path d="M-131.5 1697.95C-121.886 1682.78-112.273 1667.6-103.913 1670.97-95.553 1674.35-89.9099 1715.38-81.3414 1718.19-72.7729 1721-62.6365 1704.42-52.5001 1687.84" stroke="#000000" stroke-width="3.4375" stroke-miterlimit="8" fill="none" fill-rule="evenodd"/><path d="M-127 1989.72-109.181 1989.72-109.181 1897-88.8187 1897-88.8187 1989.72-71.0002 1989.72-99 2047Z" fill="#156082" fill-rule="evenodd"/><text font-family="Aptos,Aptos_MSFontService,sans-serif" font-weight="700" font-size="73" transform="matrix(1 0 0 1 -309.823 1500)">Substation 1</text><text font-family="Aptos,Aptos_MSFontService,sans-serif" font-weight="400" font-size="83" transform="matrix(1 0 0 1 -262.39 1919)">39</text><rect x="-27.5" y="2962.5" width="576" height="119" stroke="#000000" stroke-width="6.875" stroke-miterlimit="8" stroke-dasharray="27.5 20.625" fill="none"/><path d="M130.214 3000.5 486.718 3000.5C533.416 3000.5 539.5 3006.12 539.5 3014.41 539.5 3022.69 533.416 3030.5 486.718 3030.5L130.214 3030.5C83.5151 3030.5 79.4999 3024.88 79.4999 3016.59 79.4999 3008.31 83.5151 3000.5 130.214 3000.5Z" stroke="#FFFFFF" stroke-width="6.875" stroke-miterlimit="8" fill-rule="evenodd"/><text font-family="Aptos,Aptos_MSFontService,sans-serif" font-weight="400" font-size="83" transform="matrix(1 0 0 1 -1.3768 3040)">9</text><text font-family="Aptos,Aptos_MSFontService,sans-serif" font-weight="700" font-size="73" transform="matrix(1 0 0 1 4.92907 3158)">Substation 10</text><path d="M0 0 7.68556 1203.43" stroke="#000000" stroke-width="6.875" stroke-miterlimit="8" fill="none" fill-rule="evenodd" transform="matrix(-1 0 0 1 506.185 1819.5)"/><rect x="-7.50007" y="1190.5" width="540" height="94.0002" stroke="#000000" stroke-width="6.875" stroke-miterlimit="8" stroke-dasharray="27.5 20.625" fill="none"/><path d="M128.812 1218.5 447.34 1218.5C489.065 1218.5 494.5 1223.19 494.5 1230.09 494.5 1236.99 489.065 1243.5 447.34 1243.5L128.812 1243.5C87.0876 1243.5 83.5 1238.81 83.5 1231.91 83.5 1225.01 87.0876 1218.5 128.812 1218.5Z" stroke="#FFFFFF" stroke-width="6.875" stroke-miterlimit="8" fill-rule="evenodd"/><path d="M144.5 1238.5 144.5 3023.03" stroke="#000000" stroke-width="6.875" stroke-miterlimit="8" fill="none" fill-rule="evenodd"/><text font-family="Aptos,Aptos_MSFontService,sans-serif" font-weight="700" font-size="73" transform="matrix(1 0 0 1 -19.4218 1163)">Substation 17</text><rect x="408.5" y="1775.5" width="756" height="161" stroke="#000000" stroke-width="6.875" stroke-miterlimit="8" stroke-dasharray="27.5 20.625" fill="none"/><path d="M550.704 1804.5 1065.31 1804.5C1132.72 1804.5 1141.5 1809.94 1141.5 1817.94 1141.5 1825.95 1132.72 1833.5 1065.31 1833.5L550.704 1833.5C483.296 1833.5 477.5 1828.06 477.5 1820.06 477.5 1812.05 483.296 1804.5 550.704 1804.5Z" stroke="#FFFFFF" stroke-width="6.875" stroke-miterlimit="8" fill-rule="evenodd"/><text font-family="Aptos,Aptos_MSFontService,sans-serif" font-weight="700" font-size="73" transform="matrix(1 0 0 1 556.065 2013)">Substation 14</text><text font-family="Aptos,Aptos_MSFontService,sans-serif" font-weight="400" font-size="83" transform="matrix(1 0 0 1 426.326 1852)">5</text><rect x="362.5" y="2644.5" width="550" height="207" stroke="#000000" stroke-width="6.875" stroke-miterlimit="8" stroke-dasharray="27.5 20.625" fill="none"/><path d="M482.324 2671.5 839.603 2671.5C886.403 2671.5 892.5 2676.94 892.5 2684.94 892.5 2692.95 886.403 2700.5 839.603 2700.5L482.324 2700.5C435.524 2700.5 431.5 2695.06 431.5 2687.06 431.5 2679.05 435.524 2671.5 482.324 2671.5Z" stroke="#FFFFFF" stroke-width="6.875" stroke-miterlimit="8" fill-rule="evenodd"/><text font-family="Aptos,Aptos_MSFontService,sans-serif" font-weight="400" font-size="83" transform="matrix(1 0 0 1 384.01 2718)">8</text><path d="M630 2788.72 647.819 2788.72 647.819 2696 668.181 2696 668.181 2788.72 686 2788.72 658 2846Z" fill="#156082" fill-rule="evenodd"/><text font-family="Aptos,Aptos_MSFontService,sans-serif" font-weight="400" font-size="83" transform="matrix(1 0 0 1 111.604 649)">30</text><text font-family="Aptos,Aptos_MSFontService,sans-serif" font-weight="400" font-size="83" transform="matrix(1 0 0 1 158.722 987)">2</text><text font-family="Aptos,Aptos_MSFontService,sans-serif" font-weight="400" font-size="83" transform="matrix(1 0 0 1 14.4306 1254)">1</text><text font-family="Aptos,Aptos_MSFontService,sans-serif" font-weight="400" font-size="83" transform="matrix(1 0 0 1 -151.132 1607)">G1</text><path d="M-92.5 1765.5-92.4996 1894.05" stroke="#000000" stroke-width="6.875" stroke-miterlimit="8" fill="none" fill-rule="evenodd"/><rect x="83.5" y="178.5" width="755" height="837" stroke="#000000" stroke-width="6.875" stroke-miterlimit="8" stroke-dasharray="27.5 20.625" fill="none"/><path d="M355.5 369C355.5 330.616 384.378 299.5 420 299.5 455.622 299.5 484.5 330.616 484.5 369 484.5 407.384 455.622 438.5 420 438.5 384.378 438.5 355.5 407.384 355.5 369Z" stroke="#000000" stroke-width="3.4375" stroke-miterlimit="8" fill="#FFFFFF" fill-rule="evenodd"/><path d="M380.5 371.381C390.236 356.522 399.971 341.662 408.437 344.964 416.902 348.267 422.617 388.442 431.294 391.194 439.971 393.946 450.235 377.71 460.5 361.475" stroke="#000000" stroke-width="3.4375" stroke-miterlimit="8" fill="none" fill-rule="evenodd"/><path d="M260.812 613.5 579.34 613.5C621.065 613.5 626.5 618.186 626.5 625.09 626.5 631.994 621.065 638.5 579.34 638.5L260.812 638.5C219.088 638.5 215.5 633.814 215.5 626.91 215.5 620.006 219.088 613.5 260.812 613.5Z" stroke="#FFFFFF" stroke-width="6.875" stroke-miterlimit="8" fill-rule="evenodd"/><path d="M368 752.5C368 727.371 391.057 707 419.5 707 447.943 707 471 727.371 471 752.5 471 777.629 447.943 798 419.5 798 391.057 798 368 777.629 368 752.5Z" stroke="#000000" stroke-width="2.29167" stroke-miterlimit="8" fill="none" fill-rule="evenodd"/><path d="M368 810.5C368 785.371 391.057 765 419.5 765 447.943 765 471 785.371 471 810.5 471 835.629 447.943 856 419.5 856 391.057 856 368 835.629 368 810.5Z" stroke="#000000" stroke-width="2.29167" stroke-miterlimit="8" fill="none" fill-rule="evenodd"/><path d="M420.5 438.5 420.5 707.291" stroke="#000000" stroke-width="6.875" stroke-miterlimit="8" fill="none" fill-rule="evenodd"/><text font-family="Aptos,Aptos_MSFontService,sans-serif" font-weight="400" font-size="83" transform="matrix(1 0 0 1 346.82 270)">G10</text><path d="M285.641 952.5 757.621 952.5C819.446 952.5 827.5 957.186 827.5 964.09 827.5 970.994 819.446 977.5 757.621 977.5L285.641 977.5C223.816 977.5 218.5 972.814 218.5 965.91 218.5 959.006 223.816 952.5 285.641 952.5Z" stroke="#FFFFFF" stroke-width="6.875" stroke-miterlimit="8" fill-rule="evenodd"/><text font-family="Aptos,Aptos_MSFontService,sans-serif" font-weight="700" font-size="73" transform="matrix(1 0 0 1 63.512 160)">Substation 2</text><path d="M420.5 856.5 420.5 1237.86" stroke="#000000" stroke-width="6.875" stroke-miterlimit="8" fill="none" fill-rule="evenodd"/><text font-family="Aptos,Aptos_MSFontService,sans-serif" font-weight="700" font-size="73" transform="matrix(1 0 0 1 527.752 2915)">Substation 11</text><rect x="591.5" y="2245.5" width="550" height="271" stroke="#000000" stroke-width="6.875" stroke-miterlimit="8" stroke-dasharray="27.5 20.625" fill="none"/><path d="M711.214 2336.5 1067.72 2336.5C1114.42 2336.5 1120.5 2342.12 1120.5 2350.41 1120.5 2358.69 1114.42 2366.5 1067.72 2366.5L711.214 2366.5C664.515 2366.5 660.5 2360.88 660.5 2352.59 660.5 2344.31 664.515 2336.5 711.214 2336.5Z" stroke="#FFFFFF" stroke-width="6.875" stroke-miterlimit="8" fill-rule="evenodd"/><text font-family="Aptos,Aptos_MSFontService,sans-serif" font-weight="700" font-size="73" transform="matrix(1 0 0 1 756.623 2580)">Substation 12</text><path d="M859 2453.72 876.819 2453.72 876.819 2362 897.181 2362 897.181 2453.72 915 2453.72 887 2511Z" fill="#156082" fill-rule="evenodd"/><text font-family="Aptos,Aptos_MSFontService,sans-serif" font-weight="400" font-size="83" transform="matrix(1 0 0 1 609.755 2384)">7</text><path d="M713.5 2351.5 713.5 2686.24" stroke="#000000" stroke-width="6.875" stroke-miterlimit="8" fill="none" fill-rule="evenodd"/><path d="M1356.97 2001.5 1929.7 2001.5C2004.73 2001.5 2014.5 2008.25 2014.5 2018.19 2014.5 2028.13 2004.73 2037.5 1929.7 2037.5L1356.97 2037.5C1281.95 2037.5 1275.5 2030.75 1275.5 2020.81 1275.5 2010.87 1281.95 2001.5 1356.97 2001.5Z" stroke="#FFFFFF" stroke-width="6.875" stroke-miterlimit="8" fill-rule="evenodd"/><text font-family="Aptos,Aptos_MSFontService,sans-serif" font-weight="700" font-size="73" transform="matrix(1 0 0 1 1466.49 2772)">Substation 9</text><text font-family="Aptos,Aptos_MSFontService,sans-serif" font-weight="400" font-size="83" transform="matrix(1 0 0 1 1220.73 2045)">6</text><path d="M1108.5 2175.5 1108.5 2354.69" stroke="#000000" stroke-width="6.875" stroke-miterlimit="8" fill="none" fill-rule="evenodd"/><path d="M1503 2189C1503 2166.36 1526.28 2148 1555 2148 1583.72 2148 1607 2166.36 1607 2189 1607 2211.64 1583.72 2230 1555 2230 1526.28 2230 1503 2211.64 1503 2189Z" stroke="#000000" stroke-width="2.29167" stroke-miterlimit="8" fill="none" fill-rule="evenodd"/><path d="M1503 2247C1503 2224.36 1526.28 2206 1555 2206 1583.72 2206 1607 2224.36 1607 2247 1607 2269.64 1583.72 2288 1555 2288 1526.28 2288 1503 2269.64 1503 2247Z" stroke="#000000" stroke-width="2.29167" stroke-miterlimit="8" fill="none" fill-rule="evenodd"/><path d="M1399.5 2544C1399.5 2505.62 1428.15 2474.5 1463.5 2474.5 1498.85 2474.5 1527.5 2505.62 1527.5 2544 1527.5 2582.38 1498.85 2613.5 1463.5 2613.5 1428.15 2613.5 1399.5 2582.38 1399.5 2544Z" stroke="#000000" stroke-width="3.4375" stroke-miterlimit="8" fill="#FFFFFF" fill-rule="evenodd"/><path d="M1424.5 2546.38C1434.11 2531.52 1443.73 2516.66 1452.09 2519.96 1460.45 2523.27 1466.09 2563.44 1474.66 2566.19 1483.23 2568.95 1493.36 2552.71 1503.5 2536.47" stroke="#000000" stroke-width="3.4375" stroke-miterlimit="8" fill="none" fill-rule="evenodd"/><text font-family="Aptos,Aptos_MSFontService,sans-serif" font-weight="400" font-size="83" transform="matrix(1 0 0 1 1412.11 2691)">G2</text><path d="M1401.21 2395.5 1757.72 2395.5C1804.42 2395.5 1810.5 2401.12 1810.5 2409.41 1810.5 2417.69 1804.42 2425.5 1757.72 2425.5L1401.21 2425.5C1354.52 2425.5 1350.5 2419.88 1350.5 2411.59 1350.5 2403.31 1354.52 2395.5 1401.21 2395.5Z" stroke="#FFFFFF" stroke-width="6.875" stroke-miterlimit="8" fill-rule="evenodd"/><path d="M1692 2513.75 1709.5 2513.75 1709.5 2421 1729.5 2421 1729.5 2513.75 1747 2513.75 1719.5 2570Z" fill="#156082" fill-rule="evenodd"/><path d="M0 0 0.000721785 64.5525" stroke="#000000" stroke-width="6.875" stroke-miterlimit="8" fill="none" fill-rule="evenodd" transform="matrix(-1 0 0 1 1463.5 2409.5)"/><text font-family="Aptos,Aptos_MSFontService,sans-serif" font-weight="400" font-size="83" transform="matrix(1 0 0 1 1256.69 2438)">31</text><path d="M1555.5 2288.5 1555.5 2409.44" stroke="#000000" stroke-width="6.875" stroke-miterlimit="8" fill="none" fill-rule="evenodd"/><path d="M0 0 0.000360892 124.634" stroke="#000000" stroke-width="6.875" stroke-miterlimit="8" fill="none" fill-rule="evenodd" transform="matrix(1 0 0 -1 1555.5 2149.13)"/><path d="M1108.5 1815.5 1108.5 1924.82" stroke="#000000" stroke-width="6.875" stroke-miterlimit="8" fill="none" fill-rule="evenodd"/><rect x="630.5" y="1463.5" width="744" height="219" stroke="#000000" stroke-width="6.875" stroke-miterlimit="8" stroke-dasharray="27.5 20.625" fill="none"/><path d="M803.451 1622.5 1245.98 1622.5C1303.95 1622.5 1311.5 1627.75 1311.5 1635.48 1311.5 1643.21 1303.95 1650.5 1245.98 1650.5L803.451 1650.5C745.484 1650.5 740.5 1645.25 740.5 1637.52 740.5 1629.79 745.484 1622.5 803.451 1622.5Z" stroke="#FFFFFF" stroke-width="6.875" stroke-miterlimit="8" fill-rule="evenodd"/><text font-family="Aptos,Aptos_MSFontService,sans-serif" font-weight="700" font-size="73" transform="matrix(1 0 0 1 953.458 1745)">Substation 15</text><text font-family="Aptos,Aptos_MSFontService,sans-serif" font-weight="400" font-size="83" transform="matrix(1 0 0 1 669.26 1664)">4</text><path d="M0 92.7235 17.8186 92.7235 17.8186 0 38.1811 0 38.1811 92.7235 55.9997 92.7235 27.9999 150Z" fill="#156082" fill-rule="evenodd" transform="matrix(1 0 0 -1 981 1627)"/><path d="M930.5 1647.5 932.014 1826.55" stroke="#000000" stroke-width="6.875" stroke-miterlimit="8" fill="none" fill-rule="evenodd"/><path d="M0 0 214.385 0.000360892" stroke="#000000" stroke-width="6.875" stroke-miterlimit="8" fill="none" fill-rule="evenodd" transform="matrix(-1 0 0 1 1319.88 2175.5)"/><path d="M1320.5 1921.5 1320.5 2178.99" stroke="#000000" stroke-width="6.875" stroke-miterlimit="8" fill="none" fill-rule="evenodd"/><path d="M1109.5 1921.5 1323.89 1921.5" stroke="#000000" stroke-width="6.875" stroke-miterlimit="8" fill="none" fill-rule="evenodd"/><rect x="635.5" y="1121.5" width="540" height="219" stroke="#000000" stroke-width="6.875" stroke-miterlimit="8" stroke-dasharray="27.5 20.625" fill="none"/><path d="M772.119 1160.5 1113.9 1160.5C1158.67 1160.5 1164.5 1166.12 1164.5 1174.41 1164.5 1182.69 1158.67 1190.5 1113.9 1190.5L772.119 1190.5C727.349 1190.5 723.5 1184.88 723.5 1176.59 723.5 1168.31 727.349 1160.5 772.119 1160.5Z" stroke="#FFFFFF" stroke-width="6.875" stroke-miterlimit="8" fill-rule="evenodd"/><text font-family="Aptos,Aptos_MSFontService,sans-serif" font-weight="700" font-size="73" transform="matrix(1 0 0 1 957.189 1408)">Substation 16</text><text font-family="Aptos,Aptos_MSFontService,sans-serif" font-weight="400" font-size="83" transform="matrix(1 0 0 1 662.981 1200)">3</text><path d="M1065 1279.75 1082.5 1279.75 1082.5 1186 1102.5 1186 1102.5 1279.75 1120 1279.75 1092.5 1336Z" fill="#156082" fill-rule="evenodd"/><path d="M926.5 1177.5 930.237 1650.48" stroke="#000000" stroke-width="6.875" stroke-miterlimit="8" fill="none" fill-rule="evenodd"/><path d="M757.5 952.5 757.5 1174.81" stroke="#000000" stroke-width="6.875" stroke-miterlimit="8" fill="none" fill-rule="evenodd"/><rect x="934.5" y="39.5" width="756" height="842" stroke="#000000" stroke-width="6.875" stroke-miterlimit="8" stroke-dasharray="27.5 20.625" fill="none"/><path d="M1206.5 229.5C1206.5 190.84 1235.38 159.5 1271 159.5 1306.62 159.5 1335.5 190.84 1335.5 229.5 1335.5 268.16 1306.62 299.5 1271 299.5 1235.38 299.5 1206.5 268.16 1206.5 229.5Z" stroke="#000000" stroke-width="3.4375" stroke-miterlimit="8" fill="#FFFFFF" fill-rule="evenodd"/><path d="M1231.5 231.953C1241.24 216.778 1250.97 201.602 1259.44 204.974 1267.9 208.347 1273.62 249.377 1282.29 252.188 1290.97 254.998 1301.24 238.417 1311.5 221.836" stroke="#000000" stroke-width="3.4375" stroke-miterlimit="8" fill="none" fill-rule="evenodd"/><path d="M1111.81 474.5 1430.34 474.5C1472.06 474.5 1477.5 479.186 1477.5 486.09 1477.5 492.994 1472.06 499.5 1430.34 499.5L1111.81 499.5C1070.09 499.5 1066.5 494.814 1066.5 487.91 1066.5 481.006 1070.09 474.5 1111.81 474.5Z" stroke="#FFFFFF" stroke-width="6.875" stroke-miterlimit="8" fill-rule="evenodd"/><path d="M1219 613.5C1219 588.371 1242.06 568 1270.5 568 1298.94 568 1322 588.371 1322 613.5 1322 638.629 1298.94 659 1270.5 659 1242.06 659 1219 638.629 1219 613.5Z" stroke="#000000" stroke-width="2.29167" stroke-miterlimit="8" fill="none" fill-rule="evenodd"/><path d="M1219 671.5C1219 646.371 1242.06 626 1270.5 626 1298.94 626 1322 646.371 1322 671.5 1322 696.629 1298.94 717 1270.5 717 1242.06 717 1219 696.629 1219 671.5Z" stroke="#000000" stroke-width="2.29167" stroke-miterlimit="8" fill="none" fill-rule="evenodd"/><path d="M1271.5 299.5 1271.5 568.291" stroke="#000000" stroke-width="6.875" stroke-miterlimit="8" fill="none" fill-rule="evenodd"/><text font-family="Aptos,Aptos_MSFontService,sans-serif" font-weight="400" font-size="83" transform="matrix(1 0 0 1 1220.73 130)">G8</text><path d="M1136.64 813.5 1608.62 813.5C1670.45 813.5 1678.5 818.186 1678.5 825.09 1678.5 831.994 1670.45 838.5 1608.62 838.5L1136.64 838.5C1074.82 838.5 1069.5 833.814 1069.5 826.91 1069.5 820.006 1074.82 813.5 1136.64 813.5Z" stroke="#FFFFFF" stroke-width="6.875" stroke-miterlimit="8" fill-rule="evenodd"/><text font-family="Aptos,Aptos_MSFontService,sans-serif" font-weight="700" font-size="73" transform="matrix(1 0 0 1 914.654 20)">Substation 3</text><path d="M1271.5 717.5 1271.5 816.996" stroke="#000000" stroke-width="6.875" stroke-miterlimit="8" fill="none" fill-rule="evenodd"/><text font-family="Aptos,Aptos_MSFontService,sans-serif" font-weight="400" font-size="83" transform="matrix(1 0 0 1 971.61 503)">37</text><text font-family="Aptos,Aptos_MSFontService,sans-serif" font-weight="400" font-size="83" transform="matrix(1 0 0 1 976.115 841)">25</text><path d="M0 91.7234 17.8186 91.7234 17.8186 0 38.1814 0 38.1814 91.7234 56 91.7234 28 149Z" fill="#156082" fill-rule="evenodd" transform="matrix(1 0 0 -1 1472 816)"/><path d="M753.5 895.5 1185 895.5" stroke="#000000" stroke-width="6.875" stroke-miterlimit="8" fill="none" fill-rule="evenodd"/><path d="M756.5 895.5 756.5 966.359" stroke="#000000" stroke-width="6.875" stroke-miterlimit="8" fill="none" fill-rule="evenodd"/><path d="M1182.5 826.5 1182.5 897.359" stroke="#000000" stroke-width="6.875" stroke-miterlimit="8" fill="none" fill-rule="evenodd"/><rect x="1223.5" y="948.5" width="538" height="231" stroke="#000000" stroke-width="6.875" stroke-miterlimit="8" stroke-dasharray="27.5 20.625" fill="none"/><path d="M1383.37 1101.5 1698.8 1101.5C1740.12 1101.5 1745.5 1106.94 1745.5 1114.94 1745.5 1122.95 1740.12 1130.5 1698.8 1130.5L1383.37 1130.5C1342.05 1130.5 1338.5 1125.06 1338.5 1117.06 1338.5 1109.05 1342.05 1101.5 1383.37 1101.5Z" stroke="#FFFFFF" stroke-width="6.875" stroke-miterlimit="8" fill-rule="evenodd"/><text font-family="Aptos,Aptos_MSFontService,sans-serif" font-weight="700" font-size="73" transform="matrix(1 0 0 1 1365.97 1250)">Substation 18</text><text font-family="Aptos,Aptos_MSFontService,sans-serif" font-weight="400" font-size="83" transform="matrix(1 0 0 1 1251.93 1141)">18</text><path d="M0 92.7237 17.8186 92.7237 17.8186 0 38.1812 0 38.1812 92.7237 55.9999 92.7237 27.9999 150Z" fill="#156082" fill-rule="evenodd" transform="matrix(1 0 0 -1 1502 1103)"/><path d="M1128.5 964.5 1128.5 1186.81" stroke="#000000" stroke-width="6.875" stroke-miterlimit="8" fill="none" fill-rule="evenodd"/><path d="M1125.5 963.5 1424.13 963.5" stroke="#000000" stroke-width="6.875" stroke-miterlimit="8" fill="none" fill-rule="evenodd"/><path d="M1421.5 965.5 1421.5 1115.31" stroke="#000000" stroke-width="6.875" stroke-miterlimit="8" fill="none" fill-rule="evenodd"/><rect x="1866.5" y="945.5" width="538" height="231" stroke="#000000" stroke-width="6.875" stroke-miterlimit="8" stroke-dasharray="27.5 20.625" fill="none"/><path d="M2026.37 1099.5 2341.8 1099.5C2383.12 1099.5 2388.5 1104.94 2388.5 1112.94 2388.5 1120.95 2383.12 1128.5 2341.8 1128.5L2026.37 1128.5C1985.05 1128.5 1981.5 1123.06 1981.5 1115.06 1981.5 1107.05 1985.05 1099.5 2026.37 1099.5Z" stroke="#FFFFFF" stroke-width="6.875" stroke-miterlimit="8" fill-rule="evenodd"/><text font-family="Aptos,Aptos_MSFontService,sans-serif" font-weight="700" font-size="73" transform="matrix(1 0 0 1 2008.96 1247)">Substation 23</text><text font-family="Aptos,Aptos_MSFontService,sans-serif" font-weight="400" font-size="83" transform="matrix(1 0 0 1 1894.91 1139)">17</text><path d="M2012.5 987.5 2012.5 1117.4" stroke="#000000" stroke-width="6.875" stroke-miterlimit="8" fill="none" fill-rule="evenodd"/><path d="M1712.5 990.5 2012.04 990.5" stroke="#000000" stroke-width="6.875" stroke-miterlimit="8" fill="none" fill-rule="evenodd"/><path d="M1715.5 987.5 1715.5 1117.4" stroke="#000000" stroke-width="6.875" stroke-miterlimit="8" fill="none" fill-rule="evenodd"/><rect x="1856.5" y="341.5" width="537" height="231" stroke="#000000" stroke-width="6.875" stroke-miterlimit="8" stroke-dasharray="27.5 20.625" fill="none"/><path d="M2015.48 494.5 2331.68 494.5C2373.1 494.5 2378.5 499.936 2378.5 507.945 2378.5 515.953 2373.1 523.5 2331.68 523.5L2015.48 523.5C1974.06 523.5 1970.5 518.064 1970.5 510.055 1970.5 502.047 1974.06 494.5 2015.48 494.5Z" stroke="#FFFFFF" stroke-width="6.875" stroke-miterlimit="8" fill-rule="evenodd"/><text font-family="Aptos,Aptos_MSFontService,sans-serif" font-weight="700" font-size="73" transform="matrix(1 0 0 1 1829.31 321)">Substation 19</text><text font-family="Aptos,Aptos_MSFontService,sans-serif" font-weight="400" font-size="83" transform="matrix(1 0 0 1 1884.09 534)">26</text><path d="M0 91.7234 17.8186 91.7234 17.8186 0 38.1814 0 38.1814 91.7234 56 91.7234 28 149Z" fill="#156082" fill-rule="evenodd" transform="matrix(1 0 0 -1 2122 499)"/><path d="M0 0 1.56916 399.452" stroke="#000000" stroke-width="6.875" stroke-miterlimit="8" fill="none" fill-rule="evenodd" transform="matrix(-1 0 0 1 1641.07 419.5)"/><path d="M1637.5 421.5 1996.38 421.5" stroke="#000000" stroke-width="6.875" stroke-miterlimit="8" fill="none" fill-rule="evenodd"/><path d="M1996.5 419.5 1996.5 503.554" stroke="#000000" stroke-width="6.875" stroke-miterlimit="8" fill="none" fill-rule="evenodd"/><rect x="1825.5" y="624.5" width="637" height="230" stroke="#000000" stroke-width="6.875" stroke-miterlimit="8" stroke-dasharray="27.5 20.625" fill="none"/><path d="M2014.75 777.5 2389.08 777.5C2438.11 777.5 2444.5 782.936 2444.5 790.945 2444.5 798.953 2438.11 806.5 2389.08 806.5L2014.75 806.5C1965.72 806.5 1961.5 801.064 1961.5 793.055 1961.5 785.047 1965.72 777.5 2014.75 777.5Z" stroke="#FFFFFF" stroke-width="6.875" stroke-miterlimit="8" fill-rule="evenodd"/><text font-family="Aptos,Aptos_MSFontService,sans-serif" font-weight="700" font-size="73" transform="matrix(1 0 0 1 2064.8 926)">Substation 22</text><text font-family="Aptos,Aptos_MSFontService,sans-serif" font-weight="400" font-size="83" transform="matrix(1 0 0 1 1852.83 817)">27</text><path d="M0 92.7235 17.8186 92.7235 17.8186 0 38.1811 0 38.1811 92.7235 55.9997 92.7235 27.9999 150Z" fill="#156082" fill-rule="evenodd" transform="matrix(1 0 0 -1 2269 781)"/><path d="M2044.5 782.5 2044.5 1116.23" stroke="#000000" stroke-width="6.875" stroke-miterlimit="8" fill="none" fill-rule="evenodd"/><path d="M2044.5 506.5 2044.5 803.976" stroke="#000000" stroke-width="6.875" stroke-miterlimit="8" fill="none" fill-rule="evenodd"/><path d="M2858 354.724 2875.82 354.724 2875.82 262 2896.18 262 2896.18 354.724 2914 354.724 2886 412Z" fill="#156082" fill-rule="evenodd"/><path d="M2345.5 390.5 2345.5 503.657" stroke="#000000" stroke-width="6.875" stroke-miterlimit="8" fill="none" fill-rule="evenodd"/><path d="M2342.5 390.5 2774 390.5" stroke="#000000" stroke-width="6.875" stroke-miterlimit="8" fill="none" fill-rule="evenodd"/><path d="M2773.5 248.5 2773.5 393.226" stroke="#000000" stroke-width="6.875" stroke-miterlimit="8" fill="none" fill-rule="evenodd"/><rect x="3294.5" y="48.5" width="832" height="843" stroke="#000000" stroke-width="6.875" stroke-miterlimit="8" stroke-dasharray="27.5 20.625" fill="none"/><path d="M3836.5 239C3836.5 200.616 3865.15 169.5 3900.5 169.5 3935.85 169.5 3964.5 200.616 3964.5 239 3964.5 277.384 3935.85 308.5 3900.5 308.5 3865.15 308.5 3836.5 277.384 3836.5 239Z" stroke="#000000" stroke-width="3.4375" stroke-miterlimit="8" fill="#FFFFFF" fill-rule="evenodd"/><path d="M3861.5 241.381C3871.11 226.522 3880.73 211.662 3889.09 214.965 3897.45 218.267 3903.09 258.442 3911.66 261.194 3920.23 263.946 3930.36 247.71 3940.5 231.475" stroke="#000000" stroke-width="3.4375" stroke-miterlimit="8" fill="none" fill-rule="evenodd"/><path d="M3740.81 483.5 4059.34 483.5C4101.06 483.5 4106.5 488.374 4106.5 495.554 4106.5 502.734 4101.06 509.5 4059.34 509.5L3740.81 509.5C3699.09 509.5 3695.5 504.626 3695.5 497.446 3695.5 490.266 3699.09 483.5 3740.81 483.5Z" stroke="#FFFFFF" stroke-width="6.875" stroke-miterlimit="8" fill-rule="evenodd"/><path d="M3848 622.5C3848 597.371 3871.28 577 3900 577 3928.72 577 3952 597.371 3952 622.5 3952 647.629 3928.72 668 3900 668 3871.28 668 3848 647.629 3848 622.5Z" stroke="#000000" stroke-width="2.29167" stroke-miterlimit="8" fill="none" fill-rule="evenodd"/><path d="M3848 680.5C3848 655.371 3871.28 635 3900 635 3928.72 635 3952 655.371 3952 680.5 3952 705.629 3928.72 726 3900 726 3871.28 726 3848 705.629 3848 680.5Z" stroke="#000000" stroke-width="2.29167" stroke-miterlimit="8" fill="none" fill-rule="evenodd"/><path d="M3900.5 308.5 3900.5 577.291" stroke="#000000" stroke-width="6.875" stroke-miterlimit="8" fill="none" fill-rule="evenodd"/><text font-family="Aptos,Aptos_MSFontService,sans-serif" font-weight="400" font-size="83" transform="matrix(1 0 0 1 3849.87 140)">G9</text><path d="M3499.64 822.5 3971.62 822.5C4033.45 822.5 4041.5 827.186 4041.5 834.09 4041.5 840.994 4033.45 847.5 3971.62 847.5L3499.64 847.5C3437.82 847.5 3432.5 842.814 3432.5 835.91 3432.5 829.006 3437.82 822.5 3499.64 822.5Z" stroke="#FFFFFF" stroke-width="6.875" stroke-miterlimit="8" fill-rule="evenodd"/><text font-family="Aptos,Aptos_MSFontService,sans-serif" font-weight="700" font-size="73" transform="matrix(1 0 0 1 3294.24 26)">Substation 4</text><path d="M3900.5 726.5 3900.5 825.996" stroke="#000000" stroke-width="6.875" stroke-miterlimit="8" fill="none" fill-rule="evenodd"/><text font-family="Aptos,Aptos_MSFontService,sans-serif" font-weight="400" font-size="83" transform="matrix(1 0 0 1 3604.78 515)">38</text><text font-family="Aptos,Aptos_MSFontService,sans-serif" font-weight="400" font-size="83" transform="matrix(1 0 0 1 3326.87 862)">29</text><path d="M0 92.7237 17.8186 92.7237 17.8186 0 38.1812 0 38.1812 92.7237 55.9999 92.7237 27.9999 150Z" fill="#156082" fill-rule="evenodd" transform="matrix(1 0 0 -1 3731 827)"/><path d="M3082.5 251.5 3082.5 396.226" stroke="#000000" stroke-width="6.875" stroke-miterlimit="8" fill="none" fill-rule="evenodd"/><path d="M3079.5 396.5 3468.95 396.5" stroke="#000000" stroke-width="6.875" stroke-miterlimit="8" fill="none" fill-rule="evenodd"/><path d="M3468.5 393.5 3468.5 833.822" stroke="#000000" stroke-width="6.875" stroke-miterlimit="8" fill="none" fill-rule="evenodd"/><path d="M2297.5 82.5 3527.82 82.5004" stroke="#000000" stroke-width="6.875" stroke-miterlimit="8" fill="none" fill-rule="evenodd"/><path d="M2299.5 80.4999 2302.17 509.034" stroke="#000000" stroke-width="6.875" stroke-miterlimit="8" fill="none" fill-rule="evenodd"/><path d="M0 0 3.07336 763.982" stroke="#000000" stroke-width="6.875" stroke-miterlimit="8" fill="none" fill-rule="evenodd" transform="matrix(-1 0 0 1 3529.57 80.4999)"/><path d="M2385.6 2646.5 2794.03 2646.5C2847.53 2646.5 2854.5 2652.69 2854.5 2661.8 2854.5 2670.91 2847.53 2679.5 2794.03 2679.5L2385.6 2679.5C2332.1 2679.5 2327.5 2673.31 2327.5 2664.2 2327.5 2655.09 2332.1 2646.5 2385.6 2646.5Z" stroke="#FFFFFF" stroke-width="6.875" stroke-miterlimit="8" fill-rule="evenodd"/><text font-family="Aptos,Aptos_MSFontService,sans-serif" font-weight="700" font-size="73" transform="matrix(1 0 0 1 2453.94 3426)">Substation 8</text><text font-family="Aptos,Aptos_MSFontService,sans-serif" font-weight="400" font-size="83" transform="matrix(1 0 0 1 2250.3 2690)">10</text><path d="M2555 2830C2555 2804.59 2578.06 2784 2606.5 2784 2634.94 2784 2658 2804.59 2658 2830 2658 2855.41 2634.94 2876 2606.5 2876 2578.06 2876 2555 2855.41 2555 2830Z" stroke="#000000" stroke-width="2.29167" stroke-miterlimit="8" fill="none" fill-rule="evenodd"/><path d="M2555 2888C2555 2862.6 2578.06 2842 2606.5 2842 2634.94 2842 2658 2862.6 2658 2888 2658 2913.41 2634.94 2934 2606.5 2934 2578.06 2934 2555 2913.41 2555 2888Z" stroke="#000000" stroke-width="2.29167" stroke-miterlimit="8" fill="none" fill-rule="evenodd"/><path d="M2539.5 3189C2539.5 3150.62 2568.38 3119.5 2604 3119.5 2639.62 3119.5 2668.5 3150.62 2668.5 3189 2668.5 3227.38 2639.62 3258.5 2604 3258.5 2568.38 3258.5 2539.5 3227.38 2539.5 3189Z" stroke="#000000" stroke-width="3.4375" stroke-miterlimit="8" fill="#FFFFFF" fill-rule="evenodd"/><path d="M2565.5 3191.38C2575.11 3176.52 2584.73 3161.66 2593.09 3164.96 2601.45 3168.27 2607.09 3208.44 2615.66 3211.19 2624.23 3213.95 2634.36 3197.71 2644.5 3181.48" stroke="#000000" stroke-width="3.4375" stroke-miterlimit="8" fill="none" fill-rule="evenodd"/><text font-family="Aptos,Aptos_MSFontService,sans-serif" font-weight="400" font-size="83" transform="matrix(1 0 0 1 2553.05 3336)">G3</text><path d="M2452.32 3041.5 2809.6 3041.5C2856.4 3041.5 2862.5 3046.94 2862.5 3054.94 2862.5 3062.95 2856.4 3070.5 2809.6 3070.5L2452.32 3070.5C2405.52 3070.5 2401.5 3065.06 2401.5 3057.06 2401.5 3049.05 2405.52 3041.5 2452.32 3041.5Z" stroke="#FFFFFF" stroke-width="6.875" stroke-miterlimit="8" fill-rule="evenodd"/><path d="M0 0 0.000721785 64.5525" stroke="#000000" stroke-width="6.875" stroke-miterlimit="8" fill="none" fill-rule="evenodd" transform="matrix(-1 0 0 1 2604.5 3054.5)"/><text font-family="Aptos,Aptos_MSFontService,sans-serif" font-weight="400" font-size="83" transform="matrix(1 0 0 1 2308.26 3083)">32</text><path d="M2606.5 2934.5 2606.5 3055.45" stroke="#000000" stroke-width="6.875" stroke-miterlimit="8" fill="none" fill-rule="evenodd"/><path d="M0 0 0.000360892 115.231" stroke="#000000" stroke-width="6.875" stroke-miterlimit="8" fill="none" fill-rule="evenodd" transform="matrix(1 0 0 -1 2606.5 2784.73)"/><rect x="2249.5" y="2575.5" width="608" height="775" stroke="#000000" stroke-width="6.875" stroke-miterlimit="8" stroke-dasharray="27.5 20.625" fill="none"/><rect x="1549.5" y="1470.5" width="399" height="125" stroke="#000000" stroke-width="6.875" stroke-miterlimit="8" stroke-dasharray="27.5 20.625" fill="none"/><path d="M1695.81 1518.5 1915.91 1518.5C1944.74 1518.5 1948.5 1523.94 1948.5 1531.94 1948.5 1539.95 1944.74 1547.5 1915.91 1547.5L1695.81 1547.5C1666.98 1547.5 1664.5 1542.06 1664.5 1534.06 1664.5 1526.05 1666.98 1518.5 1695.81 1518.5Z" stroke="#FFFFFF" stroke-width="6.875" stroke-miterlimit="8" fill-rule="evenodd"/><text font-family="Aptos,Aptos_MSFontService,sans-serif" font-weight="700" font-size="73" transform="matrix(1 0 0 1 1445.82 1656)">Substation 27</text><text font-family="Aptos,Aptos_MSFontService,sans-serif" font-weight="400" font-size="83" transform="matrix(1 0 0 1 1577.52 1558)">14</text><path d="M0 0 2.23392 195.7" stroke="#000000" stroke-width="6.875" stroke-miterlimit="8" fill="none" fill-rule="evenodd" transform="matrix(-1 0 0 1 1210.73 1444.5)"/><path d="M1206.5 1443.5 1718.08 1443.5" stroke="#000000" stroke-width="6.875" stroke-miterlimit="8" fill="none" fill-rule="evenodd"/><path d="M1718.5 1439.5 1718.5 1534.24" stroke="#000000" stroke-width="6.875" stroke-miterlimit="8" fill="none" fill-rule="evenodd"/><rect x="2012.5" y="1299.5" width="374" height="230" stroke="#000000" stroke-width="6.875" stroke-miterlimit="8" stroke-dasharray="27.5 20.625" fill="none"/><path d="M2154.73 1456.5 2346.16 1456.5C2371.23 1456.5 2374.5 1461.56 2374.5 1469.02 2374.5 1476.47 2371.23 1483.5 2346.16 1483.5L2154.73 1483.5C2129.66 1483.5 2127.5 1478.44 2127.5 1470.98 2127.5 1463.53 2129.66 1456.5 2154.73 1456.5Z" stroke="#FFFFFF" stroke-width="6.875" stroke-miterlimit="8" fill-rule="evenodd"/><text font-family="Aptos,Aptos_MSFontService,sans-serif" font-weight="700" font-size="73" transform="matrix(1 0 0 1 2044.64 1603)">Substation 26</text><text font-family="Aptos,Aptos_MSFontService,sans-serif" font-weight="400" font-size="83" transform="matrix(1 0 0 1 2040 1499)">15</text><path d="M0 92.7235 17.8186 92.7235 17.8186 0 38.1811 0 38.1811 92.7235 55.9997 92.7235 27.9998 150Z" fill="#156082" fill-rule="evenodd" transform="matrix(1 0 0 -1 2227 1461)"/><path d="M1861.5 1345.5 1861.5 1532.38" stroke="#000000" stroke-width="6.875" stroke-miterlimit="8" fill="none" fill-rule="evenodd"/><path d="M1862.5 1346.5 2167.2 1346.5" stroke="#000000" stroke-width="6.875" stroke-miterlimit="8" fill="none" fill-rule="evenodd"/><path d="M2164.5 1346.5 2164.5 1465.88" stroke="#000000" stroke-width="6.875" stroke-miterlimit="8" fill="none" fill-rule="evenodd"/><rect x="2526.5" y="1185.5" width="870" height="231" stroke="#000000" stroke-width="6.875" stroke-miterlimit="8" stroke-dasharray="27.5 20.625" fill="none"/><path d="M2708.29 1242.5 3297.29 1242.5C3374.45 1242.5 3384.5 1248.69 3384.5 1257.8 3384.5 1266.91 3374.45 1275.5 3297.29 1275.5L2708.29 1275.5C2631.13 1275.5 2624.5 1269.31 2624.5 1260.2 2624.5 1251.09 2631.13 1242.5 2708.29 1242.5Z" stroke="#FFFFFF" stroke-width="6.875" stroke-miterlimit="8" fill-rule="evenodd"/><text font-family="Aptos,Aptos_MSFontService,sans-serif" font-weight="700" font-size="73" transform="matrix(1 0 0 1 2510.53 1484)">Substation 24</text><text font-family="Aptos,Aptos_MSFontService,sans-serif" font-weight="400" font-size="83" transform="matrix(1 0 0 1 2542.92 1275)">16</text><path d="M2928 1359.72 2945.82 1359.72 2945.82 1268 2966.18 1268 2966.18 1359.72 2984 1359.72 2956 1417Z" fill="#156082" fill-rule="evenodd"/><path d="M2318.5 1018.5 2318.5 1113.24" stroke="#000000" stroke-width="6.875" stroke-miterlimit="8" fill="none" fill-rule="evenodd"/><path d="M2315.5 1018.5 2665.88 1018.5" stroke="#000000" stroke-width="6.875" stroke-miterlimit="8" fill="none" fill-rule="evenodd"/><path d="M2662.5 1018.5 2662.5 1268.92" stroke="#000000" stroke-width="6.875" stroke-miterlimit="8" fill="none" fill-rule="evenodd"/><path d="M2297.5 1346.5 2297.5 1465.88" stroke="#000000" stroke-width="6.875" stroke-miterlimit="8" fill="none" fill-rule="evenodd"/><path d="M0 0 371.884 0.000360892" stroke="#000000" stroke-width="6.875" stroke-miterlimit="8" fill="none" fill-rule="evenodd" transform="matrix(1 0 0 -1 2294.5 1347.5)"/><path d="M2662.5 1249.5 2662.5 1344.24" stroke="#000000" stroke-width="6.875" stroke-miterlimit="8" fill="none" fill-rule="evenodd"/><path d="M2477.53 1854.5 2646.49 1854.5C2668.62 1854.5 2671.5 1859.94 2671.5 1867.94 2671.5 1875.95 2668.62 1883.5 2646.49 1883.5L2477.53 1883.5C2455.4 1883.5 2453.5 1878.06 2453.5 1870.06 2453.5 1862.05 2455.4 1854.5 2477.53 1854.5Z" stroke="#FFFFFF" stroke-width="6.875" stroke-miterlimit="8" fill-rule="evenodd"/><path d="M2706.3 2274.5 2887.65 2274.5C2911.41 2274.5 2914.5 2279.75 2914.5 2287.48 2914.5 2295.21 2911.41 2302.5 2887.65 2302.5L2706.3 2302.5C2682.54 2302.5 2680.5 2297.25 2680.5 2289.52 2680.5 2281.79 2682.54 2274.5 2706.3 2274.5Z" stroke="#FFFFFF" stroke-width="6.875" stroke-miterlimit="8" fill-rule="evenodd"/><path d="M2234.53 2356.5 2403.49 2356.5C2425.62 2356.5 2428.5 2361.94 2428.5 2369.94 2428.5 2377.95 2425.62 2385.5 2403.49 2385.5L2234.53 2385.5C2212.4 2385.5 2210.5 2380.06 2210.5 2372.06 2210.5 2364.05 2212.4 2356.5 2234.53 2356.5Z" stroke="#FFFFFF" stroke-width="6.875" stroke-miterlimit="8" fill-rule="evenodd"/><rect x="2101.5" y="1833.5" width="836" height="624" stroke="#000000" stroke-width="6.875" stroke-miterlimit="8" stroke-dasharray="27.5 20.625" fill="none"/><path d="M1970.5 2024.5 1970.5 2214.62" stroke="#000000" stroke-width="6.875" stroke-miterlimit="8" fill="none" fill-rule="evenodd"/><path d="M0 0 267.403 0.000360892" stroke="#000000" stroke-width="6.875" stroke-miterlimit="8" fill="none" fill-rule="evenodd" transform="matrix(-1 0 0 1 2234.9 2213.5)"/><path d="M0 0 1.28694 166.175" stroke="#000000" stroke-width="6.875" stroke-miterlimit="8" fill="none" fill-rule="evenodd" transform="matrix(-1 0 0 1 2235.79 2210.5)"/><path d="M2281 2132C2281 2109.36 2304.06 2091 2332.5 2091 2360.94 2091 2384 2109.36 2384 2132 2384 2154.64 2360.94 2173 2332.5 2173 2304.06 2173 2281 2154.64 2281 2132Z" stroke="#000000" stroke-width="2.29167" stroke-miterlimit="8" fill="none" fill-rule="evenodd"/><path d="M2281 2190C2281 2167.36 2304.06 2149 2332.5 2149 2360.94 2149 2384 2167.36 2384 2190 2384 2212.64 2360.94 2231 2332.5 2231 2304.06 2231 2281 2212.64 2281 2190Z" stroke="#000000" stroke-width="2.29167" stroke-miterlimit="8" fill="none" fill-rule="evenodd"/><path d="M2709 2130.5C2709 2108.13 2732.06 2090 2760.5 2090 2788.94 2090 2812 2108.13 2812 2130.5 2812 2152.87 2788.94 2171 2760.5 2171 2732.06 2171 2709 2152.87 2709 2130.5Z" stroke="#000000" stroke-width="2.29167" stroke-miterlimit="8" fill="none" fill-rule="evenodd"/><path d="M2709 2188.5C2709 2166.13 2732.06 2148 2760.5 2148 2788.94 2148 2812 2166.13 2812 2188.5 2812 2210.87 2788.94 2229 2760.5 2229 2732.06 2229 2709 2210.87 2709 2188.5Z" stroke="#000000" stroke-width="2.29167" stroke-miterlimit="8" fill="none" fill-rule="evenodd"/><path d="M2529 1970.72 2546.82 1970.72 2546.82 1879 2567.18 1879 2567.18 1970.72 2585 1970.72 2557 2028Z" fill="#156082" fill-rule="evenodd"/><path d="M2399.5 2365.5 2399.5 2671.96" stroke="#000000" stroke-width="6.875" stroke-miterlimit="8" fill="none" fill-rule="evenodd"/><path d="M2761.5 2288.5 2761.5 2669.54" stroke="#000000" stroke-width="6.875" stroke-miterlimit="8" fill="none" fill-rule="evenodd"/><path d="M2332.5 2231.5 2332.5 2366" stroke="#000000" stroke-width="6.875" stroke-miterlimit="8" fill="none" fill-rule="evenodd"/><path d="M0 0 0.468799 49.884" stroke="#000000" stroke-width="6.875" stroke-miterlimit="8" fill="none" fill-rule="evenodd" transform="matrix(-1 0 0 1 2760.97 2229.5)"/><text font-family="Aptos,Aptos_MSFontService,sans-serif" font-weight="700" font-size="73" transform="matrix(1 0 0 1 2083.14 1814)">Substation 13</text><text font-family="Aptos,Aptos_MSFontService,sans-serif" font-weight="400" font-size="83" transform="matrix(1 0 0 1 2121.77 2394)">11</text><text font-family="Aptos,Aptos_MSFontService,sans-serif" font-weight="400" font-size="83" transform="matrix(1 0 0 1 2594.66 2320)">13</text><text font-family="Aptos,Aptos_MSFontService,sans-serif" font-weight="400" font-size="83" transform="matrix(1 0 0 1 2354.6 1897)">12</text><path d="M0 0 0.468438 161.991" stroke="#000000" stroke-width="6.875" stroke-miterlimit="8" fill="none" fill-rule="evenodd" transform="matrix(-1 0 0 1 2332.97 1929.5)"/><path d="M2491.97 1929.59 2329.5 1927.5" stroke="#000000" stroke-width="6.875" stroke-miterlimit="8" fill="none" fill-rule="evenodd"/><path d="M2489.5 1870.5 2489.5 1931.63" stroke="#000000" stroke-width="6.875" stroke-miterlimit="8" fill="none" fill-rule="evenodd"/><path d="M2760.5 1922.5 2760.97 2089.93" stroke="#000000" stroke-width="6.875" stroke-miterlimit="8" fill="none" fill-rule="evenodd"/><path d="M2762.97 1925.59 2600.5 1923.5" stroke="#000000" stroke-width="6.875" stroke-miterlimit="8" fill="none" fill-rule="evenodd"/><path d="M2604.5 1865.5 2604.5 1926.63" stroke="#000000" stroke-width="6.875" stroke-miterlimit="8" fill="none" fill-rule="evenodd"/><path d="M1908.5 1538.5 1908.5 1657.88" stroke="#000000" stroke-width="6.875" stroke-miterlimit="8" fill="none" fill-rule="evenodd"/><path d="M1906.5 1657.5 2828.24 1657.5" stroke="#000000" stroke-width="6.875" stroke-miterlimit="8" fill="none" fill-rule="evenodd"/><path d="M2827.5 1654.5 2827.5 2280.28" stroke="#000000" stroke-width="6.875" stroke-miterlimit="8" fill="none" fill-rule="evenodd"/><rect x="2987.5" y="1718.5" width="836" height="1163" stroke="#000000" stroke-width="6.875" stroke-miterlimit="8" stroke-dasharray="27.5 20.625" fill="none"/><path d="M3160.47 2168.5 3385.22 2168.5C3414.66 2168.5 3418.5 2174.31 3418.5 2182.87 3418.5 2191.43 3414.66 2199.5 3385.22 2199.5L3160.47 2199.5C3131.03 2199.5 3128.5 2193.69 3128.5 2185.13 3128.5 2176.57 3131.03 2168.5 3160.47 2168.5Z" stroke="#FFFFFF" stroke-width="6.875" stroke-miterlimit="8" fill-rule="evenodd"/><text font-family="Aptos,Aptos_MSFontService,sans-serif" font-weight="400" font-size="83" transform="matrix(1 0 0 1 3028.51 2211)">20</text><path d="M3231 2346C3231 2320.59 3254.28 2300 3283 2300 3311.72 2300 3335 2320.59 3335 2346 3335 2371.41 3311.72 2392 3283 2392 3254.28 2392 3231 2371.41 3231 2346Z" stroke="#000000" stroke-width="2.29167" stroke-miterlimit="8" fill="none" fill-rule="evenodd"/><path d="M3231 2404C3231 2378.6 3254.28 2358 3283 2358 3311.72 2358 3335 2378.6 3335 2404 3335 2429.41 3311.72 2450 3283 2450 3254.28 2450 3231 2429.41 3231 2404Z" stroke="#000000" stroke-width="2.29167" stroke-miterlimit="8" fill="none" fill-rule="evenodd"/><path d="M3218.5 2705.5C3218.5 2666.84 3247.15 2635.5 3282.5 2635.5 3317.85 2635.5 3346.5 2666.84 3346.5 2705.5 3346.5 2744.16 3317.85 2775.5 3282.5 2775.5 3247.15 2775.5 3218.5 2744.16 3218.5 2705.5Z" stroke="#000000" stroke-width="3.4375" stroke-miterlimit="8" fill="#FFFFFF" fill-rule="evenodd"/><path d="M3243.5 2707.38C3253.24 2692.52 3262.97 2677.66 3271.44 2680.96 3279.9 2684.27 3285.62 2724.44 3294.29 2727.19 3302.97 2729.95 3313.24 2713.71 3323.5 2697.48" stroke="#000000" stroke-width="3.4375" stroke-miterlimit="8" fill="none" fill-rule="evenodd"/><text font-family="Aptos,Aptos_MSFontService,sans-serif" font-weight="400" font-size="83" transform="matrix(1 0 0 1 3224.34 2849)">G5</text><path d="M3183.6 2557.5 3395.17 2557.5C3422.89 2557.5 3426.5 2563.31 3426.5 2571.87 3426.5 2580.43 3422.89 2588.5 3395.17 2588.5L3183.6 2588.5C3155.88 2588.5 3153.5 2582.69 3153.5 2574.13 3153.5 2565.57 3155.88 2557.5 3183.6 2557.5Z" stroke="#FFFFFF" stroke-width="6.875" stroke-miterlimit="8" fill-rule="evenodd"/><path d="M0 0 0.000721785 64.5525" stroke="#000000" stroke-width="6.875" stroke-miterlimit="8" fill="none" fill-rule="evenodd" transform="matrix(-1 0 0 1 3282.5 2570.5)"/><text font-family="Aptos,Aptos_MSFontService,sans-serif" font-weight="400" font-size="83" transform="matrix(1 0 0 1 3060.11 2599)">34</text><path d="M3283.5 2450.5 3283.5 2571.45" stroke="#000000" stroke-width="6.875" stroke-miterlimit="8" fill="none" fill-rule="evenodd"/><path d="M0 0 0.000360892 115.231" stroke="#000000" stroke-width="6.875" stroke-miterlimit="8" fill="none" fill-rule="evenodd" transform="matrix(1 0 0 -1 3283.5 2300.73)"/><path d="M3217.51 1885.5 3702.67 1885.5C3766.22 1885.5 3774.5 1890.56 3774.5 1898.02 3774.5 1905.47 3766.22 1912.5 3702.67 1912.5L3217.51 1912.5C3153.96 1912.5 3148.5 1907.44 3148.5 1899.98 3148.5 1892.53 3153.96 1885.5 3217.51 1885.5Z" stroke="#FFFFFF" stroke-width="6.875" stroke-miterlimit="8" fill-rule="evenodd"/><text font-family="Aptos,Aptos_MSFontService,sans-serif" font-weight="400" font-size="83" transform="matrix(1 0 0 1 3037.26 1924)">19</text><path d="M3588 2181C3588 2155.59 3611.28 2135 3640 2135 3668.72 2135 3692 2155.59 3692 2181 3692 2206.41 3668.72 2227 3640 2227 3611.28 2227 3588 2206.41 3588 2181Z" stroke="#000000" stroke-width="2.29167" stroke-miterlimit="8" fill="none" fill-rule="evenodd"/><path d="M3588 2239C3588 2213.6 3611.28 2193 3640 2193 3668.72 2193 3692 2213.6 3692 2239 3692 2264.41 3668.72 2285 3640 2285 3611.28 2285 3588 2264.41 3588 2239Z" stroke="#000000" stroke-width="2.29167" stroke-miterlimit="8" fill="none" fill-rule="evenodd"/><path d="M3575.5 2540.5C3575.5 2501.84 3604.38 2470.5 3640 2470.5 3675.62 2470.5 3704.5 2501.84 3704.5 2540.5 3704.5 2579.16 3675.62 2610.5 3640 2610.5 3604.38 2610.5 3575.5 2579.16 3575.5 2540.5Z" stroke="#000000" stroke-width="3.4375" stroke-miterlimit="8" fill="#FFFFFF" fill-rule="evenodd"/><path d="M3600.5 2542.38C3610.24 2527.52 3619.97 2512.66 3628.44 2515.96 3636.9 2519.27 3642.62 2559.44 3651.29 2562.19 3659.97 2564.95 3670.24 2548.71 3680.5 2532.48" stroke="#000000" stroke-width="3.4375" stroke-miterlimit="8" fill="none" fill-rule="evenodd"/><text font-family="Aptos,Aptos_MSFontService,sans-serif" font-weight="400" font-size="83" transform="matrix(1 0 0 1 3581.5 2684)">G4</text><path d="M3540.6 2392.5 3752.18 2392.5C3779.89 2392.5 3783.5 2398.31 3783.5 2406.87 3783.5 2415.43 3779.89 2423.5 3752.18 2423.5L3540.6 2423.5C3512.88 2423.5 3510.5 2417.69 3510.5 2409.13 3510.5 2400.57 3512.88 2392.5 3540.6 2392.5Z" stroke="#FFFFFF" stroke-width="6.875" stroke-miterlimit="8" fill-rule="evenodd"/><path d="M0 0 0.000721785 64.5525" stroke="#000000" stroke-width="6.875" stroke-miterlimit="8" fill="none" fill-rule="evenodd" transform="matrix(-1 0 0 1 3639.5 2405.5)"/><text font-family="Aptos,Aptos_MSFontService,sans-serif" font-weight="400" font-size="83" transform="matrix(1 0 0 1 3417.26 2434)">33</text><path d="M3640.5 2285.5 3640.5 2406.45" stroke="#000000" stroke-width="6.875" stroke-miterlimit="8" fill="none" fill-rule="evenodd"/><path d="M0 0 0.000360892 234.957" stroke="#000000" stroke-width="6.875" stroke-miterlimit="8" fill="none" fill-rule="evenodd" transform="matrix(1 0 0 -1 3640.5 2135.46)"/><path d="M3231 1998.5C3231 1973.37 3254.28 1953 3283 1953 3311.72 1953 3335 1973.37 3335 1998.5 3335 2023.63 3311.72 2044 3283 2044 3254.28 2044 3231 2023.63 3231 1998.5Z" stroke="#000000" stroke-width="2.29167" stroke-miterlimit="8" fill="none" fill-rule="evenodd"/><path d="M3231 2056.5C3231 2031.37 3254.28 2011 3283 2011 3311.72 2011 3335 2031.37 3335 2056.5 3335 2081.63 3311.72 2102 3283 2102 3254.28 2102 3231 2081.63 3231 2056.5Z" stroke="#000000" stroke-width="2.29167" stroke-miterlimit="8" fill="none" fill-rule="evenodd"/><path d="M0 0 0.000360892 84.6946" stroke="#000000" stroke-width="6.875" stroke-miterlimit="8" fill="none" fill-rule="evenodd" transform="matrix(1 0 0 -1 3283.5 2187.19)"/><path d="M3283.5 1895.5 3283.5 1952.94" stroke="#000000" stroke-width="6.875" stroke-miterlimit="8" fill="none" fill-rule="evenodd"/><path d="M0 92.7237 17.8186 92.7237 17.8186 0 38.1812 0 38.1812 92.7237 55.9999 92.7237 27.9999 150Z" fill="#156082" fill-rule="evenodd" transform="matrix(1 0 0 -1 3138 2171)"/><path d="M3282.5 1261.5 3282.5 1900.77" stroke="#000000" stroke-width="6.875" stroke-miterlimit="8" fill="none" fill-rule="evenodd"/><text font-family="Aptos,Aptos_MSFontService,sans-serif" font-weight="700" font-size="73" transform="matrix(1 0 0 1 3195.19 2979)">Substation 7</text><rect x="2801.5" y="919.5" width="537" height="203" stroke="#000000" stroke-width="6.875" stroke-miterlimit="8" stroke-dasharray="27.5 20.625" fill="none"/><path d="M2955.37 941.5 3270.8 941.5C3312.12 941.5 3317.5 946.936 3317.5 954.945 3317.5 962.953 3312.12 970.5 3270.8 970.5L2955.37 970.5C2914.05 970.5 2910.5 965.064 2910.5 957.055 2910.5 949.047 2914.05 941.5 2955.37 941.5Z" stroke="#FFFFFF" stroke-width="6.875" stroke-miterlimit="8" fill-rule="evenodd"/><text font-family="Aptos,Aptos_MSFontService,sans-serif" font-weight="700" font-size="73" transform="matrix(1 0 0 1 2774.44 871)">Substation 21</text><text font-family="Aptos,Aptos_MSFontService,sans-serif" font-weight="400" font-size="83" transform="matrix(1 0 0 1 2823.96 981)">24</text><path d="M3044 1059.75 3061.5 1059.75 3061.5 966 3081.5 966 3081.5 1059.75 3099 1059.75 3071.5 1116Z" fill="#156082" fill-rule="evenodd"/><path d="M3189.5 961.5 3189.5 1261.61" stroke="#000000" stroke-width="6.875" stroke-miterlimit="8" fill="none" fill-rule="evenodd"/><rect x="3449.5" y="1434.5" width="537" height="203" stroke="#000000" stroke-width="6.875" stroke-miterlimit="8" stroke-dasharray="27.5 20.625" fill="none"/><path d="M3595.37 1573.5 3910.8 1573.5C3952.12 1573.5 3957.5 1578.94 3957.5 1586.94 3957.5 1594.95 3952.12 1602.5 3910.8 1602.5L3595.37 1602.5C3554.05 1602.5 3550.5 1597.06 3550.5 1589.06 3550.5 1581.05 3554.05 1573.5 3595.37 1573.5Z" stroke="#FFFFFF" stroke-width="6.875" stroke-miterlimit="8" fill-rule="evenodd"/><text font-family="Aptos,Aptos_MSFontService,sans-serif" font-weight="700" font-size="73" transform="matrix(1 0 0 1 3437.7 1423)">Substation 25</text><text font-family="Aptos,Aptos_MSFontService,sans-serif" font-weight="400" font-size="83" transform="matrix(1 0 0 1 3464.1 1612)">21</text><path d="M0 92.7459 17.5005 92.7459 17.5005 0 37.4995 0 37.4995 92.7459 55 92.7459 27.5 149Z" fill="#156082" fill-rule="evenodd" transform="matrix(1 0 0 -1 3765 1579)"/><path d="M3338.5 1249.5 3338.5 1473.43" stroke="#000000" stroke-width="6.875" stroke-miterlimit="8" fill="none" fill-rule="evenodd"/><path d="M0 0 281.031 0.000360892" stroke="#000000" stroke-width="6.875" stroke-miterlimit="8" fill="none" fill-rule="evenodd" transform="matrix(-1 0 0 1 3618.53 1473.5)"/><path d="M3620.5 1469.5 3620.5 1584.51" stroke="#000000" stroke-width="6.875" stroke-miterlimit="8" fill="none" fill-rule="evenodd"/><rect x="4155.5" y="1012.5" width="832" height="843" stroke="#000000" stroke-width="6.875" stroke-miterlimit="8" stroke-dasharray="27.5 20.625" fill="none"/><path d="M4697.5 1203C4697.5 1164.62 4726.15 1133.5 4761.5 1133.5 4796.85 1133.5 4825.5 1164.62 4825.5 1203 4825.5 1241.38 4796.85 1272.5 4761.5 1272.5 4726.15 1272.5 4697.5 1241.38 4697.5 1203Z" stroke="#000000" stroke-width="3.4375" stroke-miterlimit="8" fill="#FFFFFF" fill-rule="evenodd"/><path d="M4722.5 1205.38C4732.11 1190.52 4741.73 1175.66 4750.09 1178.96 4758.45 1182.27 4764.09 1222.44 4772.66 1225.19 4781.23 1227.95 4791.36 1211.71 4801.5 1195.47" stroke="#000000" stroke-width="3.4375" stroke-miterlimit="8" fill="none" fill-rule="evenodd"/><path d="M4601.92 1447.5 4921.23 1447.5C4963.05 1447.5 4968.5 1452.19 4968.5 1459.09 4968.5 1465.99 4963.05 1472.5 4921.23 1472.5L4601.92 1472.5C4560.1 1472.5 4556.5 1467.81 4556.5 1460.91 4556.5 1454.01 4560.1 1447.5 4601.92 1447.5Z" stroke="#FFFFFF" stroke-width="6.875" stroke-miterlimit="8" fill-rule="evenodd"/><path d="M4709 1586.5C4709 1561.37 4732.28 1541 4761 1541 4789.72 1541 4813 1561.37 4813 1586.5 4813 1611.63 4789.72 1632 4761 1632 4732.28 1632 4709 1611.63 4709 1586.5Z" stroke="#000000" stroke-width="2.29167" stroke-miterlimit="8" fill="none" fill-rule="evenodd"/><path d="M4709 1644.5C4709 1619.37 4732.28 1599 4761 1599 4789.72 1599 4813 1619.37 4813 1644.5 4813 1669.63 4789.72 1690 4761 1690 4732.28 1690 4709 1669.63 4709 1644.5Z" stroke="#000000" stroke-width="2.29167" stroke-miterlimit="8" fill="none" fill-rule="evenodd"/><path d="M4761.5 1272.5 4761.5 1541.29" stroke="#000000" stroke-width="6.875" stroke-miterlimit="8" fill="none" fill-rule="evenodd"/><text font-family="Aptos,Aptos_MSFontService,sans-serif" font-weight="400" font-size="83" transform="matrix(1 0 0 1 4711.11 1104)">G6</text><path d="M4360.64 1786.5 4832.62 1786.5C4894.45 1786.5 4902.5 1791.19 4902.5 1798.09 4902.5 1804.99 4894.45 1811.5 4832.62 1811.5L4360.64 1811.5C4298.82 1811.5 4293.5 1806.81 4293.5 1799.91 4293.5 1793.01 4298.82 1786.5 4360.64 1786.5Z" stroke="#FFFFFF" stroke-width="6.875" stroke-miterlimit="8" fill-rule="evenodd"/><text font-family="Aptos,Aptos_MSFontService,sans-serif" font-weight="700" font-size="73" transform="matrix(1 0 0 1 4155.48 990)">Substation 5</text><path d="M4761.5 1690.5 4761.5 1790" stroke="#000000" stroke-width="6.875" stroke-miterlimit="8" fill="none" fill-rule="evenodd"/><text font-family="Aptos,Aptos_MSFontService,sans-serif" font-weight="400" font-size="83" transform="matrix(1 0 0 1 4460.95 1483)">35</text><text font-family="Aptos,Aptos_MSFontService,sans-serif" font-weight="400" font-size="83" transform="matrix(1 0 0 1 4204.29 1819)">22</text><path d="M3903.5 1469.5 3903.5 1584.51" stroke="#000000" stroke-width="6.875" stroke-miterlimit="8" fill="none" fill-rule="evenodd"/><path d="M0 0 435.549 0.000360892" stroke="#000000" stroke-width="6.875" stroke-miterlimit="8" fill="none" fill-rule="evenodd" transform="matrix(-1 0 0 1 4337.05 1469.5)"/><path d="M4333.5 1469.5 4333.5 1797.55" stroke="#000000" stroke-width="6.875" stroke-miterlimit="8" fill="none" fill-rule="evenodd"/><path d="M4364.6 2168.5 4773.03 2168.5C4826.53 2168.5 4833.5 2174.5 4833.5 2183.34 4833.5 2192.17 4826.53 2200.5 4773.03 2200.5L4364.6 2200.5C4311.1 2200.5 4306.5 2194.5 4306.5 2185.66 4306.5 2176.83 4311.1 2168.5 4364.6 2168.5Z" stroke="#FFFFFF" stroke-width="6.875" stroke-miterlimit="8" fill-rule="evenodd"/><text font-family="Aptos,Aptos_MSFontService,sans-serif" font-weight="400" font-size="83" transform="matrix(1 0 0 1 4229.38 2212)">23</text><path d="M4534 2351.5C4534 2326.37 4557.06 2306 4585.5 2306 4613.94 2306 4637 2326.37 4637 2351.5 4637 2376.63 4613.94 2397 4585.5 2397 4557.06 2397 4534 2376.63 4534 2351.5Z" stroke="#000000" stroke-width="2.29167" stroke-miterlimit="8" fill="none" fill-rule="evenodd"/><path d="M4534 2409.5C4534 2384.37 4557.06 2364 4585.5 2364 4613.94 2364 4637 2384.37 4637 2409.5 4637 2434.63 4613.94 2455 4585.5 2455 4557.06 2455 4534 2434.63 4534 2409.5Z" stroke="#000000" stroke-width="2.29167" stroke-miterlimit="8" fill="none" fill-rule="evenodd"/><path d="M4519.5 2710.5C4519.5 2671.84 4548.15 2640.5 4583.5 2640.5 4618.85 2640.5 4647.5 2671.84 4647.5 2710.5 4647.5 2749.16 4618.85 2780.5 4583.5 2780.5 4548.15 2780.5 4519.5 2749.16 4519.5 2710.5Z" stroke="#000000" stroke-width="3.4375" stroke-miterlimit="8" fill="#FFFFFF" fill-rule="evenodd"/><path d="M4544.5 2712.95C4554.11 2697.78 4563.73 2682.6 4572.09 2685.97 4580.45 2689.35 4586.09 2730.38 4594.66 2733.19 4603.23 2736 4613.36 2719.42 4623.5 2702.84" stroke="#000000" stroke-width="3.4375" stroke-miterlimit="8" fill="none" fill-rule="evenodd"/><text font-family="Aptos,Aptos_MSFontService,sans-serif" font-weight="400" font-size="83" transform="matrix(1 0 0 1 4532.13 2857)">G7</text><path d="M4431.32 2562.5 4788.6 2562.5C4835.4 2562.5 4841.5 2567.94 4841.5 2575.94 4841.5 2583.95 4835.4 2591.5 4788.6 2591.5L4431.32 2591.5C4384.52 2591.5 4380.5 2586.06 4380.5 2578.06 4380.5 2570.05 4384.52 2562.5 4431.32 2562.5Z" stroke="#FFFFFF" stroke-width="6.875" stroke-miterlimit="8" fill-rule="evenodd"/><path d="M0 0 0.000721785 64.5525" stroke="#000000" stroke-width="6.875" stroke-miterlimit="8" fill="none" fill-rule="evenodd" transform="matrix(-1 0 0 1 4583.5 2576.5)"/><text font-family="Aptos,Aptos_MSFontService,sans-serif" font-weight="400" font-size="83" transform="matrix(1 0 0 1 4287.33 2604)">36</text><path d="M4585.5 2455.5 4585.5 2576.45" stroke="#000000" stroke-width="6.875" stroke-miterlimit="8" fill="none" fill-rule="evenodd"/><path d="M0 0 0.000360892 115.231" stroke="#000000" stroke-width="6.875" stroke-miterlimit="8" fill="none" fill-rule="evenodd" transform="matrix(1 0 0 -1 4585.5 2305.73)"/><rect x="4041.5" y="2011.5" width="795" height="860" stroke="#000000" stroke-width="6.875" stroke-miterlimit="8" stroke-dasharray="27.5 20.625" fill="none"/><text font-family="Aptos,Aptos_MSFontService,sans-serif" font-weight="700" font-size="73" transform="matrix(1 0 0 1 4326.23 2998)">Substation 6</text><path d="M0 92.7235 17.8186 92.7235 17.8186 0 38.1811 0 38.1811 92.7235 55.9997 92.7235 27.9999 150Z" fill="#156082" fill-rule="evenodd" transform="matrix(1 0 0 -1 4380 2174)"/><path d="M4761.5 1904.5 4761.5 2188.55" stroke="#000000" stroke-width="6.875" stroke-miterlimit="8" fill="none" fill-rule="evenodd"/><path d="M3283.5 966.5 3285.44 1100.79" stroke="#000000" stroke-width="6.875" stroke-miterlimit="8" fill="none" fill-rule="evenodd"/><path d="M3278.5 1099.5 4089.93 1099.5" stroke="#000000" stroke-width="6.875" stroke-miterlimit="8" fill="none" fill-rule="evenodd"/><path d="M0 0 0.739468 988.592" stroke="#000000" stroke-width="6.875" stroke-miterlimit="8" fill="none" fill-rule="evenodd" transform="matrix(-1 0 0 1 5125.24 919.5)"/><path d="M0 0 364.984 0.000360892" stroke="#000000" stroke-width="6.875" stroke-miterlimit="8" fill="none" fill-rule="evenodd" transform="matrix(-1 0 0 1 5126.48 1907.5)"/><path d="M4090.5 912.5 4090.5 1102.49" stroke="#000000" stroke-width="6.875" stroke-miterlimit="8" fill="none" fill-rule="evenodd"/><path d="M4087.5 914.5 5127.58 919.911" stroke="#000000" stroke-width="6.875" stroke-miterlimit="8" fill="none" fill-rule="evenodd"/><path d="M4583.5 1811.5 4586.12 2188.76" stroke="#000000" stroke-width="6.875" stroke-miterlimit="8" fill="none" fill-rule="evenodd"/></g></svg>